# xmcd
#
# Track frame offsets:
# 150
# 38760
# 52180
# 81957
# 89627
# 121182
# 130350
# 154967
#
# Disc length: 2397 seconds
#
#
# Revision: 1
# Processed by: cddbd v1.5.2PL0 Copyright (c) Steve Scherf et al.
# Submitted via: FreeRIP 2.951 
#
DISCID=6c095b08
DTITLE=Egberto Gismonti - Trem Caipira
DYEAR=1987
DGENRE=Jazz
TTITLE0=O Trenzinho Caipira
TTITLE1=Dansa
TTITLE2=Bachiana #5
TTITLE3=Desejo
TTITLE4=Cantiga
TTITLE5=Cancao do Carreiro
TTITLE6=Preludio
TTITLE7=Pobre Cega
EXTD=
EXTT0=
EXTT1=
EXTT2=
EXTT3=
EXTT4=
EXTT5=
EXTT6=
EXTT7=
PLAYORDER=
